<?xml version="1.0" standalone="no"?>
<!DOCTYPE svg PUBLIC "-//W3C//DTD SVG 20010904//EN"
 "http://www.w3.org/TR/2001/REC-SVG-20010904/DTD/svg10.dtd">
<svg version="1.0" xmlns="http://www.w3.org/2000/svg"
 width="512.000000pt" height="512.000000pt" viewBox="0 0 512.000000 512.000000"
 preserveAspectRatio="xMidYMid meet">

<g transform="translate(0.000000,512.000000) scale(0.100000,-0.100000)"
fill="#FB3903" stroke="none">
<path d="M3093 4418 c-70 -18 -97 -108 -49 -165 15 -18 78 -53 173 -97 l150
-69 -5 -78 c-4 -70 -2 -84 22 -131 15 -30 92 -128 181 -228 93 -105 155 -183
155 -196 0 -22 -28 -54 -48 -54 -7 0 -61 32 -121 70 -119 77 -170 93 -248 79
-72 -14 -115 -45 -220 -163 -168 -189 -318 -293 -473 -331 -106 -25 -257 -29
-450 -11 -356 34 -504 88 -675 247 -173 160 -387 284 -575 334 -99 25 -517 85
-598 85 -91 0 -190 -69 -227 -157 -23 -55 -19 -149 9 -209 31 -66 64 -92 248
-194 232 -128 758 -428 893 -510 143 -86 229 -147 269 -189 l30 -31 -74 -77
c-41 -43 -79 -84 -85 -91 -9 -10 -16 -9 -36 6 -77 60 -237 123 -359 142 -370
57 -738 -144 -899 -492 -61 -131 -75 -201 -75 -363 1 -123 4 -151 28 -230 72
-237 224 -419 441 -526 136 -67 230 -90 376 -90 348 -1 647 191 791 508 52
117 71 220 65 373 -3 80 -11 159 -21 195 -21 77 -76 193 -125 265 l-38 56 64
72 c36 40 69 72 73 72 12 0 66 -144 92 -243 19 -72 22 -112 24 -343 1 -238 3
-265 22 -307 29 -65 103 -140 165 -168 l52 -24 430 0 430 0 52 27 c63 33 116
84 143 138 11 21 65 198 120 392 128 451 175 552 327 700 l48 47 77 -122 77
-122 -43 -40 c-258 -235 -342 -650 -197 -970 87 -192 245 -349 438 -437 181
-82 429 -93 618 -28 269 92 468 300 551 577 24 77 27 106 28 228 0 162 -14
232 -74 362 -86 185 -219 323 -395 410 -214 107 -473 121 -677 38 -33 -14 -64
-22 -68 -20 -5 3 -42 59 -83 124 l-76 120 74 30 c138 58 175 63 500 70 294 6
301 7 349 31 89 45 136 125 135 230 0 48 -5 76 -22 107 -20 38 -881 1075 -951
1145 -63 64 -170 92 -261 69 -46 -12 -46 -12 -218 70 -200 95 -212 99 -254 87z
m-2117 -2453 c97 -28 97 -32 13 -119 l-74 -78 -60 -1 c-227 -7 -295 -305 -92
-408 89 -46 213 -14 272 70 26 37 30 53 33 121 l4 77 73 73 c40 40 78 70 83
66 6 -3 20 -30 31 -60 96 -256 -65 -531 -338 -578 -213 -36 -427 108 -482 325
-6 27 -10 83 -7 130 12 224 194 395 424 396 39 1 93 -6 120 -14z m3413 -4
c122 -38 206 -112 264 -231 60 -125 46 -300 -33 -414 -154 -225 -463 -259
-654 -72 -80 78 -136 205 -136 307 0 65 32 169 70 229 22 33 43 60 47 60 5 0
34 -41 66 -91 55 -88 57 -93 46 -126 -6 -19 -9 -62 -7 -94 14 -187 249 -259
376 -115 57 66 67 152 26 235 -31 62 -92 106 -160 117 -42 6 -46 9 -101 98
-32 50 -57 93 -56 96 9 25 174 25 252 1z"/>
<path d="M2738 3680 c-196 -23 -357 -110 -545 -294 -57 -56 -103 -106 -103
-113 0 -14 170 -28 316 -27 158 1 259 40 387 147 51 42 252 265 246 272 -5 4
-193 25 -216 24 -10 -1 -48 -5 -85 -9z"/>
</g>
</svg>
